<svg width="33" height="27" viewBox="0 0 33 27" fill="none" xmlns="http://www.w3.org/2000/svg">
<path d="M26.6818 13.1765H23.7727V17.5686H19.4091V20.4967H26.6818V13.1765ZM9.22727 8.78432H13.5909V5.85621H6.31818V13.1765H9.22727V8.78432ZM29.5909 0H3.40909C2.63755 0 1.89761 0.308496 1.35205 0.857622C0.806493 1.40675 0.5 2.15152 0.5 2.92811V23.4249C0.5 24.2014 0.806493 24.9462 1.35205 25.4953C1.89761 26.0445 2.63755 26.353 3.40909 26.353H29.5909C30.3624 26.353 31.1024 26.0445 31.6479 25.4953C32.1935 24.9462 32.5 24.2014 32.5 23.4249V2.92811C32.5 2.15152 32.1935 1.40675 31.6479 0.857622C31.1024 0.308496 30.3624 0 29.5909 0ZM29.5909 23.4249H3.40909V2.92811H29.5909V23.4249Z" fill="#23A6F0"/>
</svg>
