<svg width="19" height="20" viewBox="0 0 19 20" fill="none" xmlns="http://www.w3.org/2000/svg">
<path d="M18.6308 7.41939C18.5731 7.24958 18.467 7.10037 18.3255 6.99018C18.184 6.87999 18.0134 6.81365 17.8346 6.79934L12.6054 6.38383L10.3426 1.37482C10.2706 1.21349 10.1533 1.07646 10.0051 0.980278C9.85691 0.884093 9.68402 0.832861 9.50733 0.832764C9.33063 0.832667 9.15769 0.883709 9.00936 0.979732C8.86104 1.07575 8.74367 1.21265 8.67143 1.3739L6.40861 6.38383L1.17946 6.79934C1.00377 6.81326 0.835807 6.8775 0.69567 6.98438C0.555532 7.09125 0.449152 7.23624 0.389257 7.40199C0.329361 7.56774 0.318487 7.74724 0.357935 7.91901C0.397382 8.09078 0.485481 8.24755 0.611692 8.37056L4.476 12.1376L3.10932 18.0556C3.06782 18.2348 3.08112 18.4222 3.1475 18.5937C3.21387 18.7652 3.33025 18.9128 3.48154 19.0173C3.63282 19.1218 3.81203 19.1785 3.9959 19.1799C4.17978 19.1813 4.35983 19.1274 4.51269 19.0252L9.50703 15.6956L14.5014 19.0252C14.6576 19.1289 14.8419 19.1823 15.0294 19.1782C15.2169 19.1741 15.3986 19.1126 15.5501 19.0022C15.7017 18.8917 15.8157 18.7374 15.877 18.5602C15.9383 18.3829 15.9438 18.1912 15.8928 18.0107L14.2152 12.1404L18.3758 8.39625C18.6482 8.15043 18.7482 7.76702 18.6308 7.41939Z" fill="#F3CD03"/>
</svg>
